<svg xmlns="http://www.w3.org/2000/svg" xmlns:xlink="http://www.w3.org/1999/xlink" viewBox="0,0,256,256" width="540px" height="540px" fill-rule="nonzero"><g fill="#ffffff" fill-rule="nonzero" stroke="none" stroke-width="1" stroke-linecap="butt" stroke-linejoin="miter" stroke-miterlimit="10" stroke-dasharray="" stroke-dashoffset="0" font-family="none" font-weight="none" font-size="none" text-anchor="none" style="mix-blend-mode: normal"><g transform="scale(8,8)"><path d="M16,3c-7.16797,0 -13,5.83203 -13,13c0,7.16797 5.83203,13 13,13c7.16797,0 13,-5.83203 13,-13c0,-7.16797 -5.83203,-13 -13,-13zM16,5c6.08594,0 11,4.91406 11,11c0,6.08594 -4.91406,11 -11,11c-6.08594,0 -11,-4.91406 -11,-11c0,-6.08594 4.91406,-11 11,-11zM16,8c-4.75781,0.83984 -9,5.22656 -9,10c2.32813,-4.10937 3.88281,-4.40625 4.3125,-4.40625c0.42969,0 0.65625,0.22266 0.65625,0.71875v6.125c0,0.76172 -1.48047,0.63672 -1.96875,0.5625c1.80859,2.69141 6,3 6,3l2,-2l2,1c3.15625,-1.44531 5,-4.53906 5,-5c-1.37109,1.51172 -2.73437,2 -3,2c-0.26562,0 -1,-0.13672 -1,-0.5v-7.25c0,-0.62891 1.45313,-2.55078 2,-3.25c-3.60937,0.94531 -4.65625,2.59375 -4.65625,2.59375c0,0 -0.27344,-0.59375 -1.34375,-0.59375c0.39844,0.34375 1,1.27344 1,2v6.125c0,0 -1.30469,0.875 -2,0.875c-0.69531,0 -1.03125,-0.28125 -1.03125,-0.8125c0,-0.53125 0.03125,-7.1875 0.03125,-7.1875c0,0 -1,0.36719 -1,-1.6875c0,-1.02734 2,-2.3125 2,-2.3125z"></path></g></g></svg>